<?xml version="1.0" encoding="UTF-8"?>
<svg id="Layer_1" xmlns="http://www.w3.org/2000/svg" version="1.1" viewBox="0 0 342.86 379.57">
  <!-- Generator: Adobe Illustrator 29.7.1, SVG Export Plug-In . SVG Version: 2.1.1 Build 8)  -->
  <defs>
    <style>
      .st0 {
        stroke: #000;
      }

      .st0, .st1 {
        fill: none;
        stroke-miterlimit: 10;
      }

      .st2 {
        fill: #a855f7;
      }

      .st3 {
        display: none;
        fill: #606060;
      }

      .st1 {
        stroke: #fff;
      }
    </style>
  </defs>
  <g>
    <path class="st3" d="M159.26,449.88v-49.58h39.32v49.58c111.34-7.77,208.81-89.91,225.68-201.74h-68.39c8.57-30.29,13.49-60.87,8.56-92.32h155.56c2.82,66.51-5.04,131.97-31.69,193.13-42.8,98.22-137.7,173.04-243.17,192.79-5.68,1.07-35.91,3.66-37.26,5.55.23,9.87,3.34,21.61.96,30.79,28.74,1.03,61.5,7.01,87.56,19.31,12.63,5.97,24.85,13.45,30.41,26.86H31.04c6.76-14.85,17.5-21.01,32.03-26.96,26.1-10.69,57.92-16.22,85.95-17.49l1.7-34.2c-127.98-12.23-249.35-97.36-299.49-215.96C-216.99,168.29-161.54-20.05-13.28-113.32c138.39-87.06,317.46-65.02,437.51,42.61L356.75-1.78c-26.86-22.25-56.75-41.68-89.85-53.47C111.09-110.71-51.36-14.95-79.54,146.95-106.46,301.58,6.89,435.19,159.26,449.87h0Z"/>
    <path class="st2" d="M310.32,88.79c1.98,1.11,6.01-.06,8.64.75,14.44,4.41,23.02,15.13,19.68,30.85-.95,4.48-6.29,9.28-6.38,12.33-.07,2.63,6.27,18.15,7.36,23.37,6.68,31.81,2.53,60.5-7.83,90.79-1.48,4.32-7.62,14.53-7.81,17.8-.12,2.22,3.66,6.54,4.39,10.35,2.58,13.41-2.76,28.81-17.65,31.12-5.3.82-15.62-1.69-17.81-.78-2.73,1.14-12.4,13.05-16.34,16.24-21.5,17.45-49.75,30.11-77.5,32.77-5.71,33.01-56.1,34.15-60.29-.03-33.72-5.14-63.84-20.84-87.82-44.67-3.07-3.04-10.62-14.86-12.84-16.23-6.42-3.92-15.56,3.73-26.55-7.65-8.34-8.64-12.48-23.02-6.67-34.14,1.5-2.87,5.48-3.92,5.89-7.86.45-4.32-5.14-15.45-6.36-20.98-3.97-18-5.48-39-3.72-57.41.92-9.71,7.82-25.64,7.87-33.02.07-10.01-12.55-16.92-2.69-33.6,8.11-13.72,19.7-9.39,28.06-14.68,3.28-2.08,8.45-11.82,11.84-15.52,16.51-18,39.16-33.87,62.49-41.79,6.4-2.17,33.81-6.98,35.44-8.15,1.18-.85,2.92-8.01,5.48-10.77,9.15-9.86,29.54-10.22,40.22-2.53,5.36,3.86,7.47,11.33,9.43,12.8,1.57,1.19,30.89,7.09,38.04,9.83,22.9,8.76,45.85,25.58,61.97,44.03,2.65,3.03,10.56,16.25,11.44,16.76v.02h0ZM284.01,117.87c.65-8.99,4.71-15.98,10.29-22.76-26.61-28.77-56.24-53.36-96.15-60.4-4.4,3.74-5.87,9.71-10.4,13.43-4.13,3.38-12.41,4.48-14.23,8l-17.46,88.43c7.5,1.64,11.07,13.37,17.54,12.7l110.39-39.39h0,0ZM143.85,38.08c-38.86,4.35-70.21,28.99-95.28,57.29,6.28,4.93,5.17,21.35,6.96,24.27,1.29,2.09,38.18,18.46,44.19,21.62s11.46,8.39,18.22,10.83l21.08-10.78,18.92-87.29-14.09-15.93h0ZM171.69,188.1l114.44,71.22,19.29-2.89c7.08-2.19,15.83-46.89,16.48-55.32.94-12.28.08-45.92-4.93-56.56-2.97-6.31-8.62-3.48-15.25-5.27-5.64-1.51-9.43-6.54-11.78-7.15-2.91-.76-30.17,12.48-35.97,14.73-25.36,9.81-51.3,18.26-76.92,27.38-3.94.97-6.9,11.47-5.37,13.87h0ZM111.3,166.41l-60.62-32.55c-8.05,5.05-15.1,6.83-24.61,7.31-8.82,30.74-6.57,65.92,1.98,96.54,6.57-2.42,18.04,4.58,22.01,2.79,2.34-1.06,8.18-8.61,11.22-11.13,17.22-14.25,35.72-26.97,53.06-41.09l-3.03-21.87h0ZM197.2,338.74c24.22-7.3,51.76-17.16,70.84-34.22,2.22-1.98,10.44-9.47,10.89-11.41.78-3.36-1.7-20.91-4.91-23.55-8.47-6.95-27.68-15.36-38.09-21.75-10.41-6.39-72.43-49.27-76.97-48.88-2.08.18-5.29,2.74-7.7,3.31l20.17,114.86c12.18,2.71,23.06,8.21,25.78,21.62h0ZM124.72,200.54l-66.21,53.55c-2.08,3.31,1.69,8.75,1.44,13.28-.29,4.86-4.56,10.74-4.59,14.1-.03,3.73,10.28,15.68,13.5,18.86,17.93,17.74,44.9,29.69,69.31,35.05l17.6-17.6c-9.26-36.57-15.69-73.84-20.46-111.26l-10.59-6h0Z"/>
  </g>
  <path class="st0" d="M245.2,268.26"/>
  <path class="st1" d="M266,324.26"/>
  <path class="st1" d="M196.68,297.87"/>
  <path class="st1" d="M196.68,277"/>
  <path class="st1" d="M179.11,277"/>
  <path class="st1" d="M179.11,324.26"/>
  <path class="st1" d="M265.32,324.26"/>
</svg>